<svg width="5" height="9" viewBox="0 0 5 9" fill="none" xmlns="http://www.w3.org/2000/svg">
    <path d="M4.57031 4.32031C4.6224 4.3724 4.64844 4.43229 4.64844 4.5C4.64844 4.56771 4.6224 4.6276 4.57031 4.67969L0.929688 8.32031C0.877604 8.3724 0.817708 8.39844 0.75 8.39844C0.682292 8.39844 0.622396 8.3724 0.570313 8.32031L0.179688 7.92969C0.127604 7.8776 0.101563 7.81771 0.101563 7.75C0.101563 7.68229 0.127604 7.6224 0.179688 7.57031L3.25 4.5L0.179688 1.42969C0.127604 1.3776 0.101563 1.31771 0.101563 1.25C0.101563 1.18229 0.127604 1.1224 0.179688 1.07031L0.570313 0.679687C0.622396 0.627603 0.682292 0.601562 0.75 0.601562C0.817708 0.601562 0.877604 0.627603 0.929688 0.679687L4.57031 4.32031Z" fill="white" fill-opacity="0.8"/>
</svg>
