<svg width="124" height="20" viewBox="0 0 124 20" fill="none" xmlns="http://www.w3.org/2000/svg">
    <path d="M10 15.2803L16.18 19.0103L14.54 11.9803L20 7.25025L12.81 6.64025L10 0.0102539L7.19 6.64025L0 7.25025L5.46 11.9803L3.82 19.0103L10 15.2803Z" fill="#FBD433"/>
    <path d="M36 15.2803L42.18 19.0103L40.54 11.9803L46 7.25025L38.81 6.64025L36 0.0102539L33.19 6.64025L26 7.25025L31.46 11.9803L29.82 19.0103L36 15.2803Z" fill="#FBD433"/>
    <path d="M62 15.2803L68.18 19.0103L66.54 11.9803L72 7.25025L64.81 6.64025L62 0.0102539L59.19 6.64025L52 7.25025L57.46 11.9803L55.82 19.0103L62 15.2803Z" fill="#FBD433"/>
    <path d="M88 15.2803L94.18 19.0103L92.54 11.9803L98 7.25025L90.81 6.64025L88 0.0102539L85.19 6.64025L78 7.25025L83.46 11.9803L81.82 19.0103L88 15.2803Z" fill="#FBD433"/>
    <path d="M114 15.2803L120.18 19.0103L118.54 11.9803L124 7.25025L116.81 6.64025L114 0.0102539L111.19 6.64025L104 7.25025L109.46 11.9803L107.82 19.0103L114 15.2803Z" fill="#FBD433"/>
</svg>
