<svg width="103" height="48" viewBox="0 0 103 48" fill="none" xmlns="http://www.w3.org/2000/svg">
<path d="M30.7001 8.00181C32.5064 7.93588 33.8722 7.08275 33.8722 5.39847C33.8722 3.78012 32.5506 3.01291 30.4586 3.01291H28.4312V8.06775L30.7001 8.00181ZM28.4312 14.9807H26.5605V1.30664C26.5605 1.30664 30.6558 1.30664 30.678 1.30664C34.0048 1.30664 35.7447 2.88104 35.7447 5.30856C35.7447 7.36846 34.5319 8.63517 32.6391 9.24852L36.3602 14.9807H34.1376L30.7885 9.55419L28.4312 9.70807V14.9807Z" fill="white"/>
<path d="M42.9285 9.03499V8.88712C42.9285 7.45258 42.2688 6.50356 40.7863 6.50356C39.1792 6.50356 38.2338 7.81222 38.091 9.07697L42.9285 9.03499ZM38.0085 10.4276C38.0689 12.3256 39.3039 13.6763 41.1143 13.6763C42.1038 13.6763 43.174 13.4005 43.9363 12.873L44.244 14.4774C43.4012 15.0048 42.2688 15.2786 41.076 15.2786C38.2339 15.2786 36.2988 13.1888 36.2988 10.2377C36.2988 7.11493 38.3162 4.98511 40.9512 4.98511C43.2363 4.98511 44.5537 6.4616 44.5537 8.76125C44.5537 9.28871 44.4713 9.87813 44.3466 10.3016C44.3285 10.3016 38.0085 10.3416 38.0085 10.3416V10.4276Z" fill="white"/>
<path d="M51.2254 10.1538C48.4254 10.5334 47.3976 11.1228 47.3976 12.3037C47.3976 13.1687 48.0352 13.8021 49.063 13.8021C49.9299 13.8021 50.6924 13.3605 51.2254 12.7691V10.1538ZM51.2052 13.928C50.4852 14.7931 49.6202 15.2786 48.6125 15.2786C46.8424 15.2786 45.6074 14.0759 45.6074 12.5154C45.6074 10.7852 46.8202 9.26669 51.2254 9.05691V8.78123C51.2254 7.22082 50.63 6.58746 49.1053 6.58746C48.1378 6.58746 46.945 7.05099 46.0579 7.66437L45.7301 6.10196C46.5528 5.51256 47.9326 4.98511 49.2723 4.98511C51.8228 4.98511 52.9573 6.10196 52.915 8.73927V12.7892C52.915 13.5904 53.0175 13.7382 53.8402 13.7382L53.7377 15.1947C52.213 15.3206 51.5351 14.7711 51.2877 13.928H51.2052Z" fill="white"/>
<path d="M70.7488 9.03499V8.88712C70.7488 7.45258 70.0891 6.50356 68.6066 6.50356C67.0015 6.50356 66.0561 7.81222 65.9113 9.07697L70.7488 9.03499ZM65.8308 10.4276C65.8911 12.3256 67.1262 13.6763 68.9365 13.6763C69.9241 13.6763 70.9941 13.4005 71.7566 12.873L72.0663 14.4774C71.2234 15.0048 70.0891 15.2786 68.8962 15.2786C66.0561 15.2786 64.1211 13.1888 64.1211 10.2377C64.1211 7.11493 66.1385 4.98511 68.7735 4.98511C71.0566 4.98511 72.374 6.4616 72.374 8.76125C72.374 9.28871 72.2936 9.87813 72.1709 10.3016C72.1488 10.3016 65.8308 10.3416 65.8308 10.3416V10.4276Z" fill="white"/>
<path d="M75.592 14.963H73.9023V5.26083L75.592 4.98511V6.69535C76.2497 5.61846 77.0342 4.98511 78.229 4.98511C78.8626 4.98511 79.5022 5.15493 79.9991 5.47061L79.5645 7.09495C79.0476 6.77728 78.5347 6.6514 78.06 6.6514C77.1569 6.6514 76.2919 7.32871 75.592 8.65536V14.963Z" fill="white"/>
<path d="M83.9705 15.2986C82.8179 15.2986 81.5406 14.939 80.6777 14.3915L81.1082 12.8091C81.8926 13.3586 83.0452 13.7162 84.0127 13.7162C85.0828 13.7162 85.8874 13.2107 85.8874 12.3456C85.8874 11.3746 84.773 11.059 83.6607 10.7432C82.3231 10.3637 80.8628 9.68831 80.8628 7.91611C80.8628 6.12394 82.3452 4.98511 84.2379 4.98511C85.3282 4.98511 86.4224 5.25882 87.2853 5.70238L86.8529 7.28276C86.0724 6.83921 84.94 6.56549 84.1556 6.56549C83.1498 6.56549 82.4881 6.98906 82.4881 7.76826C82.4881 8.69532 83.4997 9.01296 84.6684 9.33069C86.0503 9.71023 87.5327 10.3836 87.5327 12.2197C87.5327 14.0539 86.0302 15.2986 83.9705 15.2986Z" fill="white"/>
<path d="M41.9194 28.7485C44.5865 28.7485 46.2741 26.8503 46.2741 24.0273C46.2741 21.378 44.7193 19.4819 41.6096 19.4819C38.9424 19.4819 37.1663 21.4239 37.1663 24.247C37.1663 26.9403 38.9866 28.7485 41.9194 28.7485ZM35.4324 41.6812C35.4324 43.8431 38.0091 45.4335 41.8771 45.4335C45.6969 45.4335 48.7181 43.7991 48.7181 41.3276C48.7181 39.1219 46.7187 38.5924 42.6314 38.5924C41.342 38.5924 39.8314 38.5024 38.9424 38.4145C36.8988 38.988 35.4324 40.1788 35.4324 41.6812ZM33.5215 34.3547C33.5215 32.6764 34.8552 31.134 36.8988 30.4247C34.7666 29.1899 33.5215 26.9843 33.5215 24.2031C33.5215 20.2311 36.4985 16.5669 41.7866 16.5669C43.965 16.5669 45.7411 17.1403 47.0284 17.7157L52.2743 17.2282L52.4071 20.8045L48.4968 20.0993C49.2953 20.8485 49.8747 22.7465 49.8747 24.247C49.8747 28.3069 46.4954 31.6615 41.7423 31.6615C40.7205 31.6615 40.097 31.5295 38.8982 31.176C38.0554 31.4856 36.8988 32.2789 36.8988 33.2938C36.8988 34.4866 37.6993 35.1919 41.5191 35.1919C41.5191 35.1919 43.8302 35.1919 43.3857 35.1919C49.4743 35.1919 52.2743 37.046 52.2743 40.6223C52.2743 45.0778 47.4288 48.3904 41.2979 48.3904C35.9212 48.3904 31.834 46.0948 31.834 42.4724C31.834 40.1788 33.3888 38.2807 36.1887 37.7513C34.4548 37.002 33.5215 35.7653 33.5215 34.3547Z" fill="white"/>
<path d="M67.284 25.0425V24.7328C67.284 21.7319 65.8639 19.7459 62.6617 19.7459C59.196 19.7459 57.1524 22.483 56.8427 25.1324L67.284 25.0425ZM56.6656 27.9575C56.7984 31.9274 59.4635 34.7525 63.3738 34.7525C65.5059 34.7525 67.8191 34.1791 69.4625 33.0763L70.1283 36.4288C68.3078 37.5317 65.8639 38.1071 63.2853 38.1071C57.1524 38.1071 52.9766 33.7356 52.9766 27.5579C52.9766 21.0266 57.3314 16.5691 63.0198 16.5691C67.9498 16.5691 70.792 19.6579 70.792 24.4691C70.792 25.572 70.617 26.8087 70.3516 27.6898C70.3073 27.6898 56.6656 27.7796 56.6656 27.7796V27.9575Z" fill="white"/>
<path d="M80.212 38.1511C77.7219 38.1511 74.9662 37.3999 73.0996 36.253L74.0349 32.9424C75.7224 34.0912 78.2106 34.8405 80.2986 34.8405C82.6097 34.8405 84.3415 33.7795 84.3415 31.9714C84.3415 29.9415 81.9419 29.2801 79.5443 28.6168C76.6558 27.8237 73.5018 26.4111 73.5018 22.7029C73.5018 18.9526 76.7 16.5691 80.7893 16.5691C83.1427 16.5691 85.4962 17.1425 87.3668 18.0696L86.4315 21.3802C84.7418 20.4532 82.2979 19.8778 80.6103 19.8778C78.4339 19.8778 77.0118 20.7628 77.0118 22.3951C77.0118 24.3372 79.1882 24.9965 81.7207 25.6618C84.6976 26.455 87.8978 27.8676 87.8978 31.7076C87.8978 35.5458 84.6533 38.1511 80.212 38.1511Z" fill="white"/>
<path d="M98.0423 38.1072C94.0878 38.1072 91.9497 36.2091 91.9577 31.7956L91.9517 20.4972L88.5664 20.2774L88.6367 17.9818L91.9839 16.9668L91.9517 12.5972H95.4596L95.4556 17.2305H101.81L101.768 20.4972H95.4134L95.4235 31.9295C95.4355 33.8276 96.3507 34.7966 98.1711 34.7966C99.4182 34.7966 100.651 34.4889 101.84 34.0473C101.884 34.0473 102.594 37.2241 102.594 37.2241C101.1 37.7975 99.5529 38.1072 98.0423 38.1072Z" fill="white"/>
<path d="M80.6934 5.45244V0H84.322L80.6934 5.45244Z" fill="white"/>
<path d="M61.161 12.7472C60.5234 13.3185 59.761 13.6762 58.876 13.6762C57.1261 13.6762 56.076 12.2636 56.076 10.1318C56.076 8.14981 57.1482 6.54745 59.063 6.54745C59.8857 6.54745 60.6039 6.77921 61.161 7.24274C61.161 7.24274 61.161 12.853 61.161 12.7472ZM61.161 5.30272C60.5656 5.11292 59.8013 4.98505 59.1234 4.98505C56.3034 4.98505 54.3262 7.24274 54.3262 10.1738C54.3262 13.0868 55.8689 15.2786 58.524 15.2786C59.6383 15.2786 60.4831 14.7311 61.161 14.0778C61.161 14.1837 61.161 14.9629 61.161 14.9629H62.8507V0.0380859H61.161V5.30272Z" fill="white"/>
<path d="M26.623 17.2305V37.4459H30.2666V17.2305H26.623Z" fill="white"/>
<path d="M8.99809 33.9575H6.7875L4.42405 37.2061L4.42203 13.3464H8.82107C15.8411 13.3464 19.9283 16.9229 19.9283 23.7198C19.9283 30.471 15.6198 33.9575 8.99809 33.9575ZM8.99809 9.86206C6.77744 9.86206 0.644531 9.86206 0.644531 9.86206V37.4459C0.644531 37.4459 6.60043 37.4459 8.82107 37.4459C18.3734 37.4459 23.7058 31.9714 23.7058 23.4542C23.7058 15.2446 18.1965 9.86206 8.99809 9.86206Z" fill="white"/>
</svg>
