<svg width="102" height="48" viewBox="0 0 102 48" fill="none" xmlns="http://www.w3.org/2000/svg">
<path d="M-149.121 0C-155.734 0 -161 6.34732 -161 23.9621C-161 39.1133 -158.046 47.9218 -149.121 47.9218C-139.36 47.9218 -138.205 38.2079 -138.205 30.1794L-145.268 29.8538C-145.399 36.5249 -146.039 40.7961 -148.8 40.7961C-151.368 40.7961 -152.266 39.1141 -152.266 23.9629C-152.266 8.29016 -150.536 7.12312 -148.8 7.12312C-146.746 7.12312 -145.784 9.97325 -145.784 17.6166L-138.336 17.3568C-138.336 8.93862 -139.491 0 -149.121 0ZM-125.383 0.00084799C-132.764 0.00084799 -137.581 5.76523 -137.581 23.9629C-137.581 42.1581 -132.764 47.9226 -125.383 47.9226C-118.001 47.9226 -113.184 42.1577 -113.184 23.9629C-113.184 21.4457 -113.28 19.1744 -113.458 17.1153C-110.585 26.7856 -98.943 29.1202 -98.943 36.3299C-98.943 38.2079 -99.9056 40.7961 -102.668 40.7961C-106.264 40.7961 -106.264 36.2658 -106.264 33.6748V33.6738H-113.712C-113.712 40.0227 -111.912 47.9218 -102.987 47.9218C-98.0813 47.9218 -94.6827 45.5166 -92.9149 41.8812V47.0158H-86.7498V13.2121H-86.6227L-81.0364 47.0158H-76.4143L-70.7628 13.2121H-70.634V47.0158H-63.1869V24.8466C-63.0307 42.3382 -58.2555 47.9226 -50.9946 47.9226C-44.343 47.9226 -39.7766 43.2384 -38.9368 29.0054V47.0158H-30.5907V28.5599H-27.2506C-21.1444 28.5599 -17.8477 25.1751 -16.6908 19.7557C-16.7539 21.0802 -16.7895 22.4761 -16.7895 23.9629C-16.7895 42.1581 -11.9736 47.9226 -4.59225 47.9226C2.79355 47.9226 7.6089 42.1577 7.6089 23.9629C7.6089 5.76521 2.79355 0.000828242 -4.59225 0.000828242C-10.4783 0.000828242 -14.7302 3.6746 -16.2125 14.3876C-16.3167 4.65203 -21.2511 0.909189 -30.5907 0.909189H-38.9368V18.9196C-39.7766 4.68458 -44.343 0.000828242 -50.9946 0.000828242C-58.2555 0.000828242 -63.0307 5.58522 -63.1869 23.0792V0.909209H-74.0384L-77.9547 24.5441H-78.0819L-81.8074 0.909209H-92.9149V11.1142C-93.6912 4.43389 -96.7216 0.000828242 -103.308 0.000828242C-110.296 0.000828242 -114.014 5.51657 -114.092 12.3423C-115.815 3.20017 -119.887 0.000828242 -125.383 0.000828242V0.00084799ZM7.78743 0.909209V47.0158H26.7944V39.8919H16.1352V0.909209H7.78743ZM28.1311 0.909209V47.0158H36.4775V0.909209H28.1311ZM37.8815 0.909209V8.03233H45.0731V47.0158H53.4203V8.03233H60.5162L55.0902 47.0158H62.0882L63.2419 36.7837H69.9877L71.2039 47.0158H78.7769H79.2305H85.8395V19.1038H85.9685L94.8925 47.0158H101.376V0.909209H94.7009V25.256H94.5738L86.9325 0.909209H78.7769V43.3126L73.5796 0.909209H61.5095L60.61 7.37222V0.909209H37.8815ZM-125.383 7.12312C-123.456 7.12312 -122.302 9.13114 -122.302 19.1038V28.8188C-122.302 38.7911 -123.456 40.7961 -125.383 40.7961C-127.311 40.7961 -128.466 38.7911 -128.466 28.8188V19.1038C-128.466 9.13114 -127.311 7.12312 -125.383 7.12312ZM-103.503 7.12312C-100.164 7.12312 -100.164 11.4629 -100.164 14.0539H-92.9149V28.6798C-96.6799 20.6397 -106.648 17.6901 -106.648 11.3337C-106.648 8.8079 -105.492 7.12312 -103.503 7.12312ZM-50.9946 7.12312C-49.07 7.12312 -47.9138 9.13114 -47.9138 19.1038V28.8188C-47.9138 38.7911 -49.07 40.7961 -50.9946 40.7961C-52.921 40.7961 -54.0771 38.7911 -54.0771 28.8188V19.1038C-54.0771 9.13114 -52.921 7.12312 -50.9946 7.12312ZM-4.59146 7.12312C-2.66235 7.12312 -1.50893 9.13114 -1.50893 19.1038V28.8188C-1.50893 38.7911 -2.66235 40.7961 -4.59146 40.7961C-6.51648 40.7961 -7.67226 38.7911 -7.67226 28.8188V19.1038C-7.67226 9.13114 -6.51648 7.12312 -4.59146 7.12312ZM-30.523 8.03231H-29.8848C-27.1235 8.03231 -24.5544 8.22575 -24.5544 14.8965C-24.5544 20.4649 -26.4169 21.8265 -29.8197 21.8265H-30.523V8.03231ZM66.7086 8.03231H66.8377L69.276 30.0502H64.0807L66.7086 8.03231Z" fill="white"/>
</svg>
