<svg width="139" height="48" viewBox="0 0 139 48" fill="none" xmlns="http://www.w3.org/2000/svg">
<path d="M23.2016 46.602L27.3401 5.51862C27.4938 3.372 27.9527 3.06566 28.7191 3.06566H29.1793V0.768611H22.4352V3.06566H22.8953C23.8155 3.06566 24.2745 3.67835 24.1218 5.51862L21.6678 30.046L18.9083 5.51862C18.602 3.52572 19.0622 3.06566 20.1349 3.06566H20.2886V0.768611H10.9379V3.06566H11.398C12.3181 3.06566 12.3181 3.372 12.4708 5.51862L13.2394 11.8037L10.9379 31.7326L8.48497 5.51862C8.17863 3.372 8.63869 3.06566 9.55772 3.06566H9.71145V0.768611H0.207031V3.06566H0.667099C1.73986 3.06566 1.73986 3.372 1.89358 5.51862L6.18573 46.602H12.317L14.77 25.4475L17.0693 46.602H23.2016ZM62.751 19.6215C62.751 16.7085 62.751 15.7894 64.5902 15.7894C65.8168 15.7894 65.8166 16.2496 65.8166 18.7025V43.2288C65.8166 44.149 65.5103 44.3016 65.0481 44.3016H64.7418V46.6009H74.0925V44.3016H73.6323C73.0197 44.3016 72.8638 43.9953 72.8638 43.0751V17.3223C72.8638 13.0301 71.9436 11.4973 67.8053 11.4973C66.6813 11.3752 65.5496 11.6437 64.6004 12.2578C63.6511 12.8719 62.9423 13.7941 62.593 14.8693C62.1328 12.5701 60.9064 11.4973 57.6869 11.4973C55.0814 11.4973 53.7012 12.2659 52.6284 14.8693V11.4973L44.5031 12.11V14.4093H44.8095C45.2695 14.4093 45.7297 14.8693 45.7297 16.0957V42.9224C45.7297 43.9953 45.4232 44.3016 44.8095 44.3016H44.5031V46.6009H53.5475V44.3016H53.2412C52.781 44.3016 52.6284 44.1479 52.6284 43.3814V19.6215C52.6284 16.7085 52.6284 15.7894 54.315 15.7894C55.5415 15.7894 55.5415 16.2496 55.5415 18.7025V43.2288C55.5415 44.149 55.2352 44.3016 54.7729 44.3016H54.3128V46.6009H63.5109V44.3016H63.3572C62.7444 44.3016 62.437 43.9953 62.437 43.0751V19.6215H62.751ZM127.442 46.6009H138.785V44.3016H138.017C137.097 44.3016 136.79 43.8416 136.79 41.8487V24.0674H142.769V41.696C142.769 43.689 142.463 44.149 141.542 44.149H140.622V46.446H151.813V44.149H150.893C149.973 44.149 149.667 43.689 149.667 41.696V5.51862C149.667 3.372 149.82 3.06566 150.893 3.06566H151.813V0.768611H140.625V3.06566H141.545C142.465 3.06566 142.771 3.372 142.771 5.51862V21.4608H136.64V5.51862C136.64 3.372 136.946 3.06566 138.019 3.06566H138.787V0.768611H127.442V3.06566H128.362C129.282 3.06566 129.588 3.372 129.588 5.51862V42.9224C129.588 43.8427 129.282 44.149 128.362 44.149H127.442V46.6009ZM210.681 46.6009H219.575V44.3016H219.262C218.648 44.3016 218.648 44.1479 218.648 43.3814V19.6215C218.648 16.7085 218.648 15.7894 220.487 15.7894C221.866 15.7894 221.866 16.2496 221.866 18.7025V43.2288C221.866 44.149 221.559 44.3016 221.254 44.3016H220.799V46.6009H230.303V44.3016H229.843C229.229 44.3016 229.074 43.9953 229.074 43.0751V17.3223C229.074 13.0301 228.001 11.4973 223.862 11.4973C221.102 11.4973 219.57 12.2659 218.496 14.8693V0L209.912 0.768611V3.06566H210.832C211.446 3.06566 211.753 3.372 211.753 4.7522V42.9224C211.753 43.9953 211.599 44.3016 210.832 44.3016H210.526V46.6009H210.681ZM35.4643 47.0609C42.9758 47.0609 44.0486 40.7758 44.0486 29.2786C44.0486 17.7812 42.9758 11.4962 35.4643 11.4962C27.9527 11.4962 26.88 17.6275 26.88 29.2786C26.88 40.7758 27.9527 47.0609 35.4643 47.0609ZM91.2633 46.6009H100.308V44.3016H99.8475C99.3874 44.3016 99.3874 44.1479 99.3874 43.3814V19.6215C99.3874 16.7085 99.3874 15.7894 101.227 15.7894C102.453 15.7894 102.607 16.2496 102.607 18.7025V43.2288C102.607 44.149 102.3 44.3016 101.838 44.3016H101.378V46.6009H110.887V44.3016H110.581C109.968 44.3016 109.812 43.9953 109.812 43.0751V17.3223C109.812 13.0301 108.892 11.4973 104.6 11.4973C101.994 11.4973 100.308 12.2659 99.3874 14.8693V11.4973L90.6494 12.11V14.4093H91.5696C92.0296 14.4093 92.4897 14.8693 92.4897 16.0957V42.9224C92.4897 43.9953 92.1833 44.3016 91.5696 44.3016H91.2633L91.2643 46.602L91.2633 46.6009ZM173.123 47.2146C176.189 47.2146 177.415 45.6774 178.03 43.8427C178.642 46.602 179.256 47.2146 182.781 47.2146C186.92 47.2146 187.38 44.7617 187.38 40.0094H185.387C185.387 43.5353 185.387 43.8416 184.619 43.8416C184.007 43.8416 184.007 43.5353 184.007 41.5423V18.7036C184.007 14.1051 182.468 11.6521 177.108 11.6521C172.816 11.6521 168.676 12.8786 168.831 17.6308C168.984 19.7774 169.75 21.9229 172.049 21.7692C174.042 21.6155 174.962 20.5428 174.962 18.8562C174.878 18.0471 174.631 17.2634 174.235 16.5522C173.841 15.8411 173.306 15.2172 172.663 14.7178C173.528 14.3309 174.479 14.1725 175.422 14.2577C176.96 14.2577 177.262 15.4841 177.262 17.6297V24.0685C169.445 26.6741 167.911 27.7479 167.911 37.5586C167.911 44.4564 169.75 47.2212 173.123 47.2212V47.2146ZM159.787 47.2146C165.611 47.2146 166.992 45.528 166.685 35.8711H164.232C164.232 43.5363 163.925 43.9964 161.319 43.9964C158.099 43.9964 158.099 42.6172 158.099 29.5871V28.5144H167.45C167.45 15.3316 165.913 11.6521 159.785 11.6521C154.113 11.6521 151.201 15.1779 151.201 29.5871C151.202 43.3826 153.501 47.2146 159.785 47.2146H159.787ZM83.1402 47.0609C88.8124 47.0609 90.3453 45.3743 90.1916 35.7173H87.7387C87.7387 43.3826 87.4322 43.8427 84.6729 43.8427C81.1472 43.8427 81.4536 42.4635 81.4536 29.4334V28.3607H90.498C90.498 15.1779 89.2714 11.4984 83.1412 11.4984C77.4688 11.4984 74.5569 15.0241 74.5569 29.4334C74.5569 43.3782 76.8561 47.062 83.1412 47.062L83.1402 47.0609ZM187.84 46.6009H197.191V44.3016H196.422C195.809 44.3016 195.654 43.9953 195.654 43.0751V0L186.915 0.768611V3.06566H187.835C188.449 3.06566 188.604 3.372 188.604 4.29214V43.2288C188.604 44.149 188.604 44.3016 188.144 44.3016H187.685V46.6009H187.84ZM120.698 47.0609C124.99 47.0609 127.137 44.3016 127.137 40.0094C127.137 30.045 118.243 24.3738 118.243 17.3223C118.243 15.1757 119.011 14.563 120.542 14.563C122.841 14.563 123.147 15.4831 123.455 18.8552L123.761 22.0745H126.369V11.8037H124.376C124.222 13.0301 123.916 13.4902 123.916 13.3409C123.307 12.7047 122.566 12.2102 121.745 11.8923C120.923 11.5745 120.042 11.4411 119.164 11.5017C115.484 11.5017 112.112 13.1883 112.112 18.7068C112.112 27.4449 121.006 34.0362 121.006 40.6276C121.006 43.5406 120.394 43.9996 118.247 43.9996C116.254 43.9996 115.641 43.0795 115.334 38.7873L115.18 35.8743H112.421V46.6052H114.72C114.874 45.3788 115.333 44.6124 115.64 45.068C116.409 45.8367 117.327 47.0609 120.699 47.0609H120.698ZM198.728 39.3968C198.728 44.9154 199.497 47.062 205.013 47.062C208.846 47.062 209.765 45.5248 209.765 41.2371V35.4109H207.465V41.5423C207.465 43.5353 207.312 43.8416 206.547 43.8416C205.78 43.8416 205.626 43.5353 205.626 41.8487V14.4093H209.918V11.8037H205.626V3.06566H203.173C201.486 10.8835 199.954 11.8037 197.654 11.8037H197.042V14.4093H198.579V39.3968H198.728ZM35.4643 43.9953C33.7777 43.9953 33.7777 43.0751 33.7777 29.2818C33.7777 15.3371 33.7777 14.4125 35.4643 14.4125C37.0014 14.4125 37.0014 15.3327 37.0014 29.126C37.0014 43.0708 37.0014 43.9953 35.4643 43.9953ZM111.345 13.3365C117.17 9.04436 118.396 5.67125 116.403 2.75931C115.484 1.07276 113.031 0 111.346 1.53722C109.199 3.22378 109.809 6.28943 113.645 8.12531C112.876 8.89392 111.346 10.5783 109.966 11.8048L111.345 13.3365ZM176.036 42.7687C174.655 42.7687 174.655 41.2316 174.655 36.6375C174.655 28.2058 174.655 27.1331 177.415 25.6002V40.0094C177.415 42.3087 177.108 42.7687 176.036 42.7687ZM81.4525 25.7496C81.6062 14.866 81.7588 14.2522 83.2915 14.2522C84.8244 14.2522 84.6707 14.8649 84.6707 25.7496H81.4525ZM158.099 25.7496C158.253 14.866 158.406 14.2522 159.939 14.2522C161.471 14.2522 161.164 14.8649 161.164 25.7496H158.099Z" fill="white"/>
</svg>
