<svg width="155" height="48" viewBox="0 0 155 48" fill="none" xmlns="http://www.w3.org/2000/svg">
<path d="M73.9706 0C73.9706 0 72.2316 0.0364146 71.2238 0.0193798C71.1819 0.442349 70.6963 4.27514 70.2785 7.35829C69.798 10.2112 65.991 31.3746 64.701 37.7098C64.3617 39.6228 63.312 45.0268 63.2128 45.5667C62.001 45.7115 60.5703 45.8451 59.6355 45.8812C59.5101 45.8853 59.3012 45.926 59.202 45.926V47.0232C59.3169 47.0186 59.9226 47.0651 60.3509 47.0468C61.3797 47.0139 64.299 46.8755 64.8524 46.8755C66.952 46.8755 68.3515 47.0144 70.2941 47.053C70.3202 47.053 70.853 47.051 71.088 47.0212V45.9126C70.926 45.9126 70.7119 45.9072 70.5866 45.9072C70.0383 45.9245 68.0173 45.7695 66.9937 45.63C67.1138 44.9051 68.8997 33.9445 69.7563 29.5615C71.3857 21.4486 72.5136 15.6988 72.5136 15.6988L72.8166 16.4127L85.6896 47.0949L88.0396 47.1068C88.0396 47.1068 89.3818 43.7845 90.9746 40.0577C91.0163 39.9695 91.1311 39.7026 91.293 39.3215C92.9642 35.4517 101.247 15.8121 101.247 15.8121C101.247 15.8121 101.325 16.1658 101.456 16.7981C102.244 20.6475 104.913 34.52 105.482 37.867C105.748 39.5887 105.999 41.3351 106.145 42.3582C106.359 43.8069 106.5 45.2247 106.5 45.632C106.239 45.644 103.618 45.8812 102.625 45.924C102.484 45.9192 102.218 45.9323 102.202 45.935V47.051C102.558 47.051 102.902 47.0666 103.247 47.0588C105.273 47.0201 107.221 46.8614 109.247 46.8624C111.524 46.8645 115.217 47.0635 117.582 47.0786C117.849 47.0786 118.324 47.0551 118.324 47.0551V45.9277C118.188 45.9265 117.593 45.8973 117.373 45.8802C116.313 45.7971 114.527 45.6315 114.073 45.6013C114.073 45.6013 113.78 43.9807 113.394 42.1091C111.848 34.6219 107.446 11.8636 106.772 6.26369C106.542 4.33895 105.889 0.0172908 105.889 0.0172908L103.242 0.0164648C103.242 0.0164648 101.889 3.89731 100.657 7.4358C99.8159 9.85372 98.6721 12.8388 97.8001 15.1277C93.4969 26.4372 88.6714 36.9758 88.6714 36.9758C88.6714 36.9758 78.4148 12.503 77.8717 11.0878C77.3234 9.67199 73.9706 0.000275879 73.9706 0.000275879V0ZM0.242114 0.0101993L0.26457 2.59686L0.220703 8.89601L0.903102 8.87668L0.97449 3.27419C0.97449 3.27404 4.71633 3.24181 5.20027 3.24244L12.1778 3.24547L16.6809 3.26792L16.6882 42.2301L16.6894 45.5953L16.5943 45.6083C15.9948 45.6548 13.6881 45.7957 12.7512 45.8298C12.5413 45.8365 12.4071 45.8418 12.3841 45.8391L12.3883 46.9792C12.5575 46.9875 13.0134 46.9985 13.0734 46.9965C15.2898 46.9677 18.289 46.7749 20.4155 46.7771C22.576 46.7781 25.6163 46.988 27.498 47.0099C27.6844 47.0109 27.9053 46.9927 28.0845 46.9927V45.9237L27.8509 45.9259C27.2515 45.9232 23.9358 45.7096 23.5927 45.6648C23.5786 45.1419 23.517 42.6186 23.517 42.5626L23.5332 3.26375L26.9616 3.25466L35.9068 3.26077L38.8925 3.30156C38.9123 3.51488 39.0634 6.35274 39.0607 6.43003C39.0539 6.63631 39.1724 8.75031 39.1677 9.27045L39.8754 9.27881L39.8247 2.90758L39.8571 0.0416897C37.2282 0.113234 30.5285 0.203268 20.1309 0.197784C11.2138 0.192301 2.62045 0.117517 0.242219 0.0100946L0.242114 0.0101993ZM41.888 0.0203986L41.899 1.13631C42.2519 1.15547 44.3272 1.33908 44.8318 1.36373C45.2345 1.41304 45.7964 1.46347 46.1984 1.50243C46.1984 1.8597 46.2047 4.32499 46.2105 5.29796C46.2778 14.52 46.2203 34.9016 46.1932 42.1132C46.1849 44.1984 46.1791 45.5421 46.1791 45.5421C45.9248 45.6184 45.3525 45.6472 44.7335 45.6889C44.2046 45.7249 42.3088 45.8841 41.8858 45.8931V47.0091C42.0613 47.0091 42.3831 47.0462 42.5664 47.0445C44.7121 47.045 47.6956 46.7788 49.8937 46.7803C52.1154 46.7819 55.0816 47.0523 56.8311 47.053L56.8258 47.054C56.9772 47.056 57.3377 47.0164 57.4891 47.0169V45.9014H57.3377C57.2697 45.8868 55.0136 45.7917 54.4653 45.7347C54.1782 45.7165 52.9352 45.6089 52.9196 45.5677C52.9143 45.5458 52.9091 45.2121 52.9091 44.6558C52.9143 44.128 52.9143 43.25 52.9143 42.2985C52.9196 35.0244 52.9403 13.4202 52.9457 5.16218C52.9457 3.56619 52.9508 2.26943 52.9508 1.57383C53.4366 1.54311 55.421 1.33564 56.1313 1.27297C56.1625 1.26989 57.1027 1.21578 57.4891 1.1924V0.0295891C55.0606 0.0287017 51.8475 0.21848 49.4775 0.21728C46.9989 0.215764 43.9455 0.0213277 41.888 0.0204136V0.0203986ZM154.272 0.0520303C154.272 0.0520303 154.016 0.0531255 153.541 0.0540661C151.917 0.0610645 147.76 0.0915627 142.898 0.1183C139.911 0.135639 137.576 0.159609 134.5 0.158095C132.343 0.183371 129.325 0.26651 127.461 0.263167C124.484 0.258311 122.056 0.0748502 120.734 0.0693675C120.108 0.0666004 119.758 0.0902048 119.585 0.0795518C119.596 0.0953751 119.596 1.18115 119.596 1.18115C119.711 1.2012 119.941 1.22678 120.155 1.22193C120.902 1.27217 122.301 1.38523 123.011 1.47898C123.152 1.50482 123.392 1.54446 124.061 1.61872C124.056 1.8658 124.092 4.6616 124.087 6.34135C124.087 7.89761 124.071 42.6208 124.071 42.6208C124.071 42.6771 123.993 45.4132 123.993 45.634C122.813 45.8361 120.546 45.9604 119.773 45.9636H119.544V47.0681C119.653 47.0674 120.16 47.0874 120.447 47.0874C121.695 47.0869 124.912 46.8885 128.197 46.8863C130.5 46.8843 133.033 46.9704 135.597 47.007C138.757 47.0508 141.953 47.0528 144.825 47.0937C149.561 47.1605 153.4 47.1662 154.648 47.1678C154.648 47.1678 154.799 38.3823 154.799 37.6742L154.115 37.682C154.115 38.4294 153.839 41.2123 153.828 41.3339C153.739 42.3816 153.645 43.4793 153.572 44.0203C153.572 44.0203 153.238 44.0469 153.076 44.0439C152.298 44.0293 149.812 44.1195 149.76 44.1195L138.673 44.1242L130.887 43.9937L130.834 41.8337L130.829 25.0639C132.218 25.0169 134.338 24.9433 135.628 24.9458C136.725 24.9479 139.31 24.8863 140.757 24.8894C144.271 24.8957 147.394 24.9182 147.645 24.9255C148.225 24.9421 149.3 24.9777 149.708 25.0028C149.723 25.1505 149.77 25.3814 149.776 25.4467C149.985 26.7309 150.099 27.6201 150.24 28.8809C150.261 28.9942 150.272 29.1038 150.287 29.2073H151.086C151.086 29.2073 151.107 28.7566 151.097 28.476C151.081 27.4875 151.018 25.5156 151.018 23.33C151.013 21.815 151.102 19.4989 151.112 18.3851C151.118 18.0836 151.081 17.8696 151.081 17.7835L150.35 17.7976C150.345 18.0383 150.287 18.3934 150.287 18.3934C150.225 19.2237 149.99 20.2849 149.802 21.4045C149.75 21.544 149.713 21.7387 149.713 21.7387C149.629 21.767 147.337 21.8891 147.133 21.8876C147.055 21.8871 143.718 21.9805 143.66 21.9805L130.834 21.9325L130.855 3.44036C130.855 3.44041 132.485 3.38288 132.939 3.38532C134.788 3.38564 137.796 3.36882 140.861 3.3731C145.347 3.37854 149.703 3.40648 149.713 3.41284C149.739 3.42564 151.065 3.44407 151.092 3.4669C151.123 3.49187 152.784 3.54152 153.191 3.55464C153.191 3.55464 153.222 3.6923 153.243 3.86572C153.426 5.81547 153.577 8.13104 153.645 8.95147L153.651 9.27995L154.335 9.27786C154.335 8.07726 154.272 4.40043 154.262 2.06116C154.256 1.30983 154.272 0.697971 154.272 0.349862V0.0520303Z" fill="white"/>
</svg>
