<svg width="264" height="48" viewBox="0 0 264 48" fill="none" xmlns="http://www.w3.org/2000/svg">
<path d="M12.6449 0C6.03151 0 0.765625 6.34732 0.765625 23.9621C0.765625 39.1133 3.71964 47.9218 12.6449 47.9218C22.4057 47.9218 23.5609 38.2079 23.5609 30.1794L16.4977 29.8538C16.3671 36.5249 15.727 40.7961 12.9653 40.7961C10.3972 40.7961 9.49969 39.1141 9.49969 23.9629C9.49969 8.29016 11.2297 7.12312 12.9653 7.12312C15.0192 7.12312 15.9818 9.97325 15.9818 17.6166L23.4297 17.3568C23.4297 8.93862 22.2743 0 12.6449 0ZM36.3825 0.00084799C29.0012 0.00084799 24.1845 5.76523 24.1845 23.9629C24.1845 42.1581 29.0012 47.9226 36.3825 47.9226C43.765 47.9226 48.5813 42.1577 48.5813 23.9629C48.5813 21.4457 48.4857 19.1744 48.3074 17.1153C51.1811 26.7856 62.8226 29.1202 62.8226 36.3299C62.8226 38.2079 61.86 40.7961 59.0978 40.7961C55.5019 40.7961 55.5017 36.2658 55.5017 33.6748L48.054 33.6738C48.054 40.0227 49.8538 47.9218 58.7783 47.9218C63.6843 47.9218 67.0829 45.5166 68.8507 41.8812V47.0158H75.0158V13.2121H75.1429L80.7292 47.0158H85.3514L91.0028 13.2121H91.1317V47.0158H98.5787V24.8466C98.7349 42.3382 103.51 47.9226 110.771 47.9226C117.423 47.9226 121.989 43.2384 122.829 29.0054V47.0158H131.175V28.5599H134.515C140.621 28.5599 143.918 25.1751 145.075 19.7557C145.012 21.0802 144.976 22.4761 144.976 23.9629C144.976 42.1581 149.792 47.9226 157.173 47.9226C164.559 47.9226 169.375 42.1577 169.375 23.9629C169.375 5.76521 164.559 0.000828242 157.173 0.000828242C151.287 0.000828242 147.035 3.6746 145.553 14.3876C145.449 4.65203 140.514 0.909189 131.175 0.909189H122.829V18.9196C121.989 4.68458 117.423 0.000828242 110.771 0.000828242C103.51 0.000828242 98.7349 5.58522 98.5787 23.0792V0.909209H87.7273L83.811 24.5441H83.6837L79.9582 0.909209H68.8507V11.1142C68.0744 4.43389 65.0441 0.000828242 58.458 0.000828242C51.4701 0.000828242 47.7519 5.51657 47.6733 12.3423C45.9504 3.20017 41.8791 0.00084799 36.3825 0.00084799ZM169.553 0.909209V47.0158H188.56V39.8919H177.901V0.909209H169.553ZM189.897 0.909209V47.0158H198.243V0.909209H189.897ZM199.647 0.909209V8.03233H206.839V47.0158H215.186V8.03233H222.282L216.856 47.0158H223.854L225.007 36.7837H231.753L232.97 47.0158H240.542H240.996H247.605V19.1038H247.734L256.658 47.0158H263.142V0.909209H256.467V25.256H256.339L248.698 0.909209H240.542V43.3126L235.345 0.909209H223.275L222.376 7.37222V0.909209H199.647ZM36.3825 7.12312C38.3098 7.12312 39.4641 9.13114 39.4641 19.1038V28.8188C39.4641 38.7911 38.3098 40.7961 36.3825 40.7961C34.4549 40.7961 33.2999 38.7911 33.2999 28.8188V19.1038C33.2999 9.13114 34.4549 7.12312 36.3825 7.12312ZM58.2625 7.12312C61.6017 7.12312 61.6015 11.4629 61.6015 14.0539H68.8507V28.6798C65.0857 20.6396 55.1179 17.6901 55.1179 11.3337C55.1179 8.8079 56.2739 7.12312 58.2625 7.12312ZM110.771 7.12312C112.696 7.12312 113.852 9.13114 113.852 19.1038V28.8188C113.852 38.7911 112.696 40.7961 110.771 40.7961C108.845 40.7961 107.688 38.7911 107.688 28.8188V19.1038C107.688 9.13114 108.845 7.12312 110.771 7.12312ZM157.174 7.12312C159.103 7.12312 160.257 9.13114 160.257 19.1038V28.8188C160.257 38.7911 159.103 40.7961 157.174 40.7961C155.249 40.7961 154.093 38.7911 154.093 28.8188V19.1038C154.093 9.13114 155.249 7.12312 157.174 7.12312ZM131.243 8.03231H131.881C134.642 8.03231 137.211 8.22575 137.211 14.8965C137.211 20.4649 135.349 21.8265 131.946 21.8265H131.243V8.03231ZM228.474 8.03231H228.603L231.042 30.0502H225.846L228.474 8.03231Z" fill="white"/>
</svg>
