<svg width="156" height="48" viewBox="0 0 156 48" fill="none" xmlns="http://www.w3.org/2000/svg">
<path d="M74.7382 0C74.7382 0 72.9992 0.0364146 71.9914 0.0193798C71.9495 0.442349 71.4639 4.27514 71.0461 7.35829C70.5656 10.2112 66.7586 31.3746 65.4686 37.7098C65.1292 39.6228 64.0796 45.0268 63.9803 45.5667C62.7686 45.7115 61.3379 45.8451 60.403 45.8812C60.2777 45.8853 60.0688 45.926 59.9696 45.926V47.0232C60.0844 47.0186 60.6902 47.0651 61.1185 47.0468C62.1472 47.0139 65.0666 46.8755 65.62 46.8755C67.7195 46.8755 69.119 47.0144 71.0617 47.053C71.0878 47.053 71.6206 47.051 71.8556 47.0212V45.9126C71.6936 45.9126 71.4795 45.9072 71.3542 45.9072C70.8059 45.9245 68.7848 45.7695 67.7612 45.63C67.8814 44.9051 69.6673 33.9445 70.5239 29.5615C72.1532 21.4486 73.2812 15.6988 73.2812 15.6988L73.5842 16.4127L86.4572 47.0949L88.8072 47.1068C88.8072 47.1068 90.1493 43.7845 91.7421 40.0577C91.7838 39.9695 91.8987 39.7026 92.0606 39.3215C93.7318 35.4517 102.014 15.8121 102.014 15.8121C102.014 15.8121 102.093 16.1658 102.223 16.7981C103.012 20.6475 105.68 34.52 106.25 37.867C106.516 39.5887 106.767 41.3351 106.913 42.3582C107.127 43.8069 107.268 45.2247 107.268 45.632C107.007 45.644 104.385 45.8812 103.393 45.924C103.252 45.9192 102.986 45.9323 102.97 45.935V47.051C103.325 47.051 103.67 47.0666 104.015 47.0588C106.041 47.0201 107.989 46.8614 110.015 46.8624C112.292 46.8645 115.984 47.0635 118.35 47.0786C118.616 47.0786 119.091 47.0551 119.091 47.0551V45.9277C118.955 45.9265 118.36 45.8973 118.141 45.8802C117.081 45.7971 115.295 45.6315 114.84 45.6013C114.84 45.6013 114.548 43.9807 114.161 42.1091C112.616 34.6219 108.213 11.8636 107.539 6.26369C107.31 4.33895 106.657 0.0172908 106.657 0.0172908L104.009 0.0164648C104.009 0.0164648 102.657 3.89731 101.424 7.4358C100.583 9.85372 99.4397 12.8388 98.5677 15.1277C94.2645 26.4372 89.439 36.9758 89.439 36.9758C89.439 36.9758 79.1824 12.503 78.6393 11.0878C78.091 9.67199 74.7382 0.000275879 74.7382 0.000275879V0ZM1.00969 0.0101993L1.03215 2.59686L0.988281 8.89601L1.67068 8.87668L1.74207 3.27419C1.74207 3.27404 5.48391 3.24181 5.96785 3.24244L12.9454 3.24547L17.4485 3.26792L17.4558 42.2301L17.457 45.5953L17.3619 45.6083C16.7624 45.6548 14.4557 45.7957 13.5188 45.8298C13.3089 45.8365 13.1746 45.8418 13.1517 45.8391L13.1558 46.9792C13.325 46.9875 13.781 46.9985 13.841 46.9965C16.0574 46.9677 19.0566 46.7749 21.183 46.7771C23.3435 46.7781 26.3839 46.988 28.2655 47.0099C28.452 47.0109 28.6729 46.9927 28.852 46.9927V45.9237L28.6185 45.9259C28.0191 45.9232 24.7033 45.7096 24.3603 45.6648C24.3462 45.1419 24.2845 42.6186 24.2845 42.5626L24.3008 3.26375L27.7292 3.25466L36.6744 3.26077L39.6601 3.30156C39.6799 3.51488 39.8309 6.35274 39.8283 6.43003C39.8215 6.63631 39.94 8.75031 39.9353 9.27045L40.643 9.27881L40.5923 2.90758L40.6247 0.0416897C37.9958 0.113234 31.2961 0.203268 20.8985 0.197784C11.9813 0.192301 3.38803 0.117517 1.0098 0.0100946L1.00969 0.0101993ZM42.6556 0.0203986L42.6665 1.13631C43.0195 1.15547 45.0948 1.33908 45.5993 1.36373C46.002 1.41304 46.5639 1.46347 46.966 1.50243C46.966 1.8597 46.9723 4.32499 46.9781 5.29796C47.0454 14.52 46.9879 34.9016 46.9608 42.1132C46.9525 44.1984 46.9467 45.5421 46.9467 45.5421C46.6924 45.6184 46.12 45.6472 45.5011 45.6889C44.9721 45.7249 43.0764 45.8841 42.6534 45.8931V47.0091C42.8289 47.0091 43.1507 47.0462 43.334 47.0445C45.4797 47.045 48.4632 46.7788 50.6613 46.7803C52.8829 46.7819 55.8492 47.0523 57.5987 47.053L57.5934 47.054C57.7448 47.056 58.1052 47.0164 58.2566 47.0169V45.9014H58.1052C58.0373 45.8868 55.7812 45.7917 55.2329 45.7347C54.9457 45.7165 53.7028 45.6089 53.6872 45.5677C53.6818 45.5458 53.6767 45.2121 53.6767 44.6558C53.6818 44.128 53.6818 43.25 53.6818 42.2985C53.6872 35.0244 53.7079 13.4202 53.7132 5.16218C53.7132 3.56619 53.7184 2.26943 53.7184 1.57383C54.2042 1.54311 56.1885 1.33564 56.8988 1.27297C56.9301 1.26989 57.8702 1.21578 58.2566 1.1924V0.0295891C55.8282 0.0287017 52.615 0.21848 50.2451 0.21728C47.7665 0.215764 44.713 0.0213277 42.6556 0.0204136V0.0203986ZM155.04 0.0520303C155.04 0.0520303 154.784 0.0531255 154.308 0.0540661C152.684 0.0610645 148.527 0.0915627 143.665 0.1183C140.678 0.135639 138.344 0.159609 135.268 0.158095C133.111 0.183371 130.093 0.26651 128.228 0.263167C125.252 0.258311 122.823 0.0748502 121.502 0.0693675C120.875 0.0666004 120.525 0.0902048 120.353 0.0795518C120.363 0.0953751 120.363 1.18115 120.363 1.18115C120.478 1.2012 120.708 1.22678 120.922 1.22193C121.669 1.27217 123.069 1.38523 123.779 1.47898C123.92 1.50482 124.16 1.54446 124.829 1.61872C124.823 1.8658 124.86 4.6616 124.855 6.34135C124.855 7.89761 124.839 42.6208 124.839 42.6208C124.839 42.6771 124.761 45.4132 124.761 45.634C123.58 45.8361 121.314 45.9604 120.541 45.9636H120.311V47.0681C120.421 47.0674 120.928 47.0874 121.215 47.0874C122.463 47.0869 125.68 46.8885 128.965 46.8863C131.268 46.8843 133.8 46.9704 136.365 47.007C139.524 47.0508 142.72 47.0528 145.592 47.0937C150.329 47.1605 154.167 47.1662 155.416 47.1678C155.416 47.1678 155.567 38.3823 155.567 37.6742L154.883 37.682C154.883 38.4294 154.606 41.2123 154.596 41.3339C154.507 42.3816 154.413 43.4793 154.34 44.0203C154.34 44.0203 154.006 44.0469 153.844 44.0439C153.066 44.0293 150.58 44.1195 150.527 44.1195L139.44 44.1242L131.654 43.9937L131.602 41.8337L131.597 25.0639C132.986 25.0169 135.106 24.9433 136.396 24.9458C137.493 24.9479 140.078 24.8863 141.524 24.8894C145.039 24.8957 148.162 24.9182 148.412 24.9255C148.992 24.9421 150.068 24.9777 150.475 25.0028C150.491 25.1505 150.538 25.3814 150.543 25.4467C150.752 26.7309 150.867 27.6201 151.008 28.8809C151.029 28.9942 151.039 29.1038 151.055 29.2073H151.854C151.854 29.2073 151.875 28.7566 151.864 28.476C151.849 27.4875 151.786 25.5156 151.786 23.33C151.781 21.815 151.87 19.4989 151.88 18.3851C151.885 18.0836 151.849 17.8696 151.849 17.7835L151.118 17.7976C151.112 18.0383 151.055 18.3934 151.055 18.3934C150.992 19.2237 150.757 20.2849 150.569 21.4045C150.517 21.544 150.481 21.7387 150.481 21.7387C150.397 21.767 148.104 21.8891 147.901 21.8876C147.822 21.8871 144.485 21.9805 144.428 21.9805L131.602 21.9325L131.623 3.44036C131.623 3.44041 133.252 3.38288 133.706 3.38532C135.555 3.38564 138.563 3.36882 141.629 3.3731C146.115 3.37854 150.47 3.40648 150.481 3.41284C150.507 3.42564 151.833 3.44407 151.859 3.4669C151.891 3.49187 153.551 3.54152 153.958 3.55464C153.958 3.55464 153.99 3.6923 154.011 3.86572C154.193 5.81547 154.345 8.13104 154.413 8.95147L154.418 9.27995L155.102 9.27786C155.102 8.07726 155.04 4.40043 155.029 2.06116C155.024 1.30983 155.04 0.697971 155.04 0.349862V0.0520303Z" fill="white"/>
</svg>
