<svg width="231" height="48" viewBox="0 0 231 48" fill="none" xmlns="http://www.w3.org/2000/svg">
<path d="M22.9946 46.602L27.1331 5.51862C27.2868 3.372 27.7457 3.06566 28.5121 3.06566H28.9723V0.768611H22.2282V3.06566H22.6882C23.6085 3.06566 24.0674 3.67835 23.9148 5.51862L21.4608 30.046L18.7013 5.51862C18.395 3.52572 18.8552 3.06566 19.9279 3.06566H20.0816V0.768611H10.7309V3.06566H11.191C12.1111 3.06566 12.1111 3.372 12.2637 5.51862L13.0323 11.8037L10.7309 31.7326L8.27794 5.51862C7.97159 3.372 8.43166 3.06566 9.35069 3.06566H9.50442V0.768611H0V3.06566H0.460068C1.53283 3.06566 1.53283 3.372 1.68655 5.51862L5.9787 46.602H12.11L14.563 25.4475L16.8622 46.602H22.9946ZM62.544 19.6215C62.544 16.7085 62.544 15.7894 64.3832 15.7894C65.6098 15.7894 65.6096 16.2496 65.6096 18.7025V43.2288C65.6096 44.149 65.3033 44.3016 64.8411 44.3016H64.5348V46.6009H73.8855V44.3016H73.4253C72.8126 44.3016 72.6568 43.9953 72.6568 43.0751V17.3223C72.6568 13.0301 71.7366 11.4973 67.5982 11.4973C66.4743 11.3752 65.3426 11.6437 64.3933 12.2578C63.4441 12.8719 62.7353 13.7941 62.386 14.8693C61.9258 12.5701 60.6994 11.4973 57.4799 11.4973C54.8743 11.4973 53.4942 12.2659 52.4214 14.8693V11.4973L44.2961 12.11V14.4093H44.6024C45.0625 14.4093 45.5227 14.8693 45.5227 16.0957V42.9224C45.5227 43.9953 45.2162 44.3016 44.6024 44.3016H44.2961V46.6009H53.3405V44.3016H53.0342C52.574 44.3016 52.4214 44.1479 52.4214 43.3814V19.6215C52.4214 16.7085 52.4214 15.7894 54.108 15.7894C55.3345 15.7894 55.3345 16.2496 55.3345 18.7025V43.2288C55.3345 44.149 55.0282 44.3016 54.5658 44.3016H54.1058V46.6009H63.3039V44.3016H63.1502C62.5374 44.3016 62.23 43.9953 62.23 43.0751V19.6215H62.544ZM127.235 46.6009H138.578V44.3016H137.81C136.89 44.3016 136.583 43.8416 136.583 41.8487V24.0674H142.562V41.696C142.562 43.689 142.255 44.149 141.335 44.149H140.415V46.446H151.606V44.149H150.686C149.766 44.149 149.46 43.689 149.46 41.696V5.51862C149.46 3.372 149.613 3.06566 150.686 3.06566H151.606V0.768611H140.417V3.06566H141.338C142.258 3.06566 142.564 3.372 142.564 5.51862V21.4608H136.433V5.51862C136.433 3.372 136.739 3.06566 137.812 3.06566H138.58V0.768611H127.235V3.06566H128.155C129.075 3.06566 129.381 3.372 129.381 5.51862V42.9224C129.381 43.8427 129.075 44.149 128.155 44.149H127.235V46.6009ZM210.474 46.6009H219.368V44.3016H219.055C218.441 44.3016 218.441 44.1479 218.441 43.3814V19.6215C218.441 16.7085 218.441 15.7894 220.28 15.7894C221.659 15.7894 221.659 16.2496 221.659 18.7025V43.2288C221.659 44.149 221.352 44.3016 221.047 44.3016H220.592V46.6009H230.096V44.3016H229.636C229.022 44.3016 228.867 43.9953 228.867 43.0751V17.3223C228.867 13.0301 227.794 11.4973 223.655 11.4973C220.895 11.4973 219.363 12.2659 218.289 14.8693V0L209.705 0.768611V3.06566H210.625C211.239 3.06566 211.546 3.372 211.546 4.7522V42.9224C211.546 43.9953 211.392 44.3016 210.625 44.3016H210.319V46.6009H210.474ZM35.2572 47.0609C42.7687 47.0609 43.8416 40.7758 43.8416 29.2786C43.8416 17.7812 42.7687 11.4962 35.2572 11.4962C27.7457 11.4962 26.673 17.6275 26.673 29.2786C26.673 40.7758 27.7457 47.0609 35.2572 47.0609ZM91.0562 46.6009H100.1V44.3016H99.6404C99.1804 44.3016 99.1804 44.1479 99.1804 43.3814V19.6215C99.1804 16.7085 99.1804 15.7894 101.02 15.7894C102.246 15.7894 102.4 16.2496 102.4 18.7025V43.2288C102.4 44.149 102.093 44.3016 101.631 44.3016H101.171V46.6009H110.68V44.3016H110.374C109.761 44.3016 109.605 43.9953 109.605 43.0751V17.3223C109.605 13.0301 108.685 11.4973 104.393 11.4973C101.787 11.4973 100.1 12.2659 99.1804 14.8693V11.4973L90.4423 12.11V14.4093H91.3626C91.8226 14.4093 92.2826 14.8693 92.2826 16.0957V42.9224C92.2826 43.9953 91.9763 44.3016 91.3626 44.3016H91.0562L91.0573 46.602L91.0562 46.6009ZM172.916 47.2146C175.982 47.2146 177.208 45.6774 177.823 43.8427C178.435 46.602 179.049 47.2146 182.574 47.2146C186.713 47.2146 187.173 44.7617 187.173 40.0094H185.18C185.18 43.5353 185.18 43.8416 184.412 43.8416C183.799 43.8416 183.799 43.5353 183.799 41.5423V18.7036C183.799 14.1051 182.261 11.6521 176.901 11.6521C172.609 11.6521 168.469 12.8786 168.624 17.6308C168.777 19.7774 169.543 21.9229 171.842 21.7692C173.835 21.6155 174.755 20.5428 174.755 18.8562C174.671 18.0471 174.424 17.2634 174.028 16.5522C173.634 15.8411 173.099 15.2172 172.456 14.7178C173.321 14.3309 174.272 14.1725 175.215 14.2577C176.752 14.2577 177.055 15.4841 177.055 17.6297V24.0685C169.238 26.6741 167.704 27.7479 167.704 37.5586C167.704 44.4564 169.543 47.2212 172.916 47.2212V47.2146ZM159.58 47.2146C165.404 47.2146 166.785 45.528 166.478 35.8711H164.025C164.025 43.5363 163.718 43.9964 161.112 43.9964C157.892 43.9964 157.892 42.6172 157.892 29.5871V28.5144H167.243C167.243 15.3316 165.706 11.6521 159.578 11.6521C153.906 11.6521 150.994 15.1779 150.994 29.5871C150.995 43.3826 153.294 47.2146 159.578 47.2146H159.58ZM82.9331 47.0609C88.6054 47.0609 90.1383 45.3743 89.9846 35.7173H87.5316C87.5316 43.3826 87.2252 43.8427 84.4659 43.8427C80.9402 43.8427 81.2465 42.4635 81.2465 29.4334V28.3607H90.2909C90.2909 15.1779 89.0644 11.4984 82.9342 11.4984C77.2617 11.4984 74.3498 15.0241 74.3498 29.4334C74.3498 43.3782 76.6491 47.062 82.9342 47.062L82.9331 47.0609ZM187.633 46.6009H196.984V44.3016H196.215C195.602 44.3016 195.447 43.9953 195.447 43.0751V0L186.708 0.768611V3.06566H187.628C188.242 3.06566 188.397 3.372 188.397 4.29214V43.2288C188.397 44.149 188.397 44.3016 187.937 44.3016H187.478V46.6009H187.633ZM120.491 47.0609C124.783 47.0609 126.929 44.3016 126.929 40.0094C126.929 30.045 118.036 24.3738 118.036 17.3223C118.036 15.1757 118.804 14.563 120.335 14.563C122.634 14.563 122.94 15.4831 123.248 18.8552L123.554 22.0745H126.162V11.8037H124.169C124.015 13.0301 123.709 13.4902 123.709 13.3409C123.1 12.7047 122.359 12.2102 121.538 11.8923C120.716 11.5745 119.835 11.4411 118.957 11.5017C115.277 11.5017 111.905 13.1883 111.905 18.7068C111.905 27.4449 120.799 34.0362 120.799 40.6276C120.799 43.5406 120.186 43.9996 118.04 43.9996C116.047 43.9996 115.434 43.0795 115.127 38.7873L114.973 35.8743H112.214V46.6052H114.513C114.667 45.3788 115.126 44.6124 115.433 45.068C116.202 45.8367 117.12 47.0609 120.492 47.0609H120.491ZM198.521 39.3968C198.521 44.9154 199.289 47.062 204.806 47.062C208.639 47.062 209.558 45.5248 209.558 41.2371V35.4109H207.258V41.5423C207.258 43.5353 207.105 43.8416 206.34 43.8416C205.573 43.8416 205.419 43.5353 205.419 41.8487V14.4093H209.711V11.8037H205.419V3.06566H202.966C201.279 10.8835 199.747 11.8037 197.447 11.8037H196.835V14.4093H198.372V39.3968H198.521ZM35.2572 43.9953C33.5706 43.9953 33.5706 43.0751 33.5706 29.2818C33.5706 15.3371 33.5706 14.4125 35.2572 14.4125C36.7944 14.4125 36.7944 15.3327 36.7944 29.126C36.7944 43.0708 36.7944 43.9953 35.2572 43.9953ZM111.138 13.3365C116.963 9.04436 118.189 5.67125 116.196 2.75931C115.277 1.07276 112.824 0 111.139 1.53722C108.992 3.22378 109.602 6.28943 113.438 8.12531C112.669 8.89392 111.139 10.5783 109.759 11.8048L111.138 13.3365ZM175.829 42.7687C174.448 42.7687 174.448 41.2316 174.448 36.6375C174.448 28.2058 174.448 27.1331 177.208 25.6002V40.0094C177.208 42.3087 176.901 42.7687 175.829 42.7687ZM81.2455 25.7496C81.3992 14.866 81.5518 14.2522 83.0845 14.2522C84.6174 14.2522 84.4637 14.8649 84.4637 25.7496H81.2455ZM157.892 25.7496C158.046 14.866 158.199 14.2522 159.732 14.2522C161.264 14.2522 160.957 14.8649 160.957 25.7496H157.892Z" fill="white"/>
</svg>
