<svg width="103" height="48" viewBox="0 0 103 48" fill="none" xmlns="http://www.w3.org/2000/svg">
<path d="M30.4677 8.00181C32.274 7.93588 33.6397 7.08275 33.6397 5.39847C33.6397 3.78012 32.3181 3.01291 30.2262 3.01291H28.1987V8.06775L30.4677 8.00181ZM28.1987 14.9807H26.3281V1.30664C26.3281 1.30664 30.4234 1.30664 30.4456 1.30664C33.7724 1.30664 35.5123 2.88104 35.5123 5.30856C35.5123 7.36846 34.2995 8.63517 32.4067 9.24852L36.1278 14.9807H33.9052L30.5561 9.55419L28.1987 9.70807V14.9807Z" fill="white"/>
<path d="M42.6961 9.03499V8.88712C42.6961 7.45258 42.0364 6.50356 40.5539 6.50356C38.9468 6.50356 38.0014 7.81222 37.8586 9.07697L42.6961 9.03499ZM37.7761 10.4276C37.8364 12.3256 39.0715 13.6763 40.8818 13.6763C41.8714 13.6763 42.9415 13.4005 43.7038 12.873L44.0116 14.4774C43.1688 15.0048 42.0364 15.2786 40.8436 15.2786C38.0014 15.2786 36.0664 13.1888 36.0664 10.2377C36.0664 7.11493 38.0838 4.98511 40.7188 4.98511C43.0039 4.98511 44.3213 6.4616 44.3213 8.76125C44.3213 9.28871 44.2389 9.87813 44.1141 10.3016C44.0961 10.3016 37.7761 10.3416 37.7761 10.3416V10.4276Z" fill="white"/>
<path d="M50.9929 10.1538C48.193 10.5334 47.1652 11.1228 47.1652 12.3037C47.1652 13.1687 47.8028 13.8021 48.8306 13.8021C49.6975 13.8021 50.4599 13.3605 50.9929 12.7691V10.1538ZM50.9728 13.928C50.2528 14.7931 49.3878 15.2786 48.3801 15.2786C46.6099 15.2786 45.375 14.0759 45.375 12.5154C45.375 10.7852 46.5878 9.26669 50.9929 9.05691V8.78123C50.9929 7.22082 50.3976 6.58746 48.8729 6.58746C47.9054 6.58746 46.7126 7.05099 45.8255 7.66437L45.4977 6.10196C46.3204 5.51256 47.7002 4.98511 49.0398 4.98511C51.5904 4.98511 52.7248 6.10196 52.6826 8.73927V12.7892C52.6826 13.5904 52.7851 13.7382 53.6078 13.7382L53.5052 15.1947C51.9806 15.3206 51.3027 14.7711 51.0553 13.928H50.9728Z" fill="white"/>
<path d="M70.5164 9.03499V8.88712C70.5164 7.45258 69.8566 6.50356 68.3742 6.50356C66.7691 6.50356 65.8237 7.81222 65.6789 9.07697L70.5164 9.03499ZM65.5983 10.4276C65.6587 12.3256 66.8938 13.6763 68.7041 13.6763C69.6917 13.6763 70.7617 13.4005 71.5241 12.873L71.8339 14.4774C70.991 15.0048 69.8566 15.2786 68.6638 15.2786C65.8237 15.2786 63.8887 13.1888 63.8887 10.2377C63.8887 7.11493 65.9061 4.98511 68.5411 4.98511C70.8242 4.98511 72.1416 6.4616 72.1416 8.76125C72.1416 9.28871 72.0612 9.87813 71.9385 10.3016C71.9164 10.3016 65.5983 10.3416 65.5983 10.3416V10.4276Z" fill="white"/>
<path d="M75.3595 14.963H73.6699V5.26083L75.3595 4.98511V6.69535C76.0173 5.61846 76.8018 4.98511 77.9966 4.98511C78.6302 4.98511 79.2698 5.15493 79.7666 5.47061L79.3321 7.09495C78.8152 6.77728 78.3023 6.6514 77.8276 6.6514C76.9245 6.6514 76.0595 7.32871 75.3595 8.65536V14.963Z" fill="white"/>
<path d="M83.7381 15.2986C82.5854 15.2986 81.3082 14.939 80.4453 14.3915L80.8758 12.8091C81.6602 13.3586 82.8128 13.7162 83.7803 13.7162C84.8503 13.7162 85.6549 13.2107 85.6549 12.3456C85.6549 11.3746 84.5406 11.059 83.4283 10.7432C82.0907 10.3637 80.6304 9.68831 80.6304 7.91611C80.6304 6.12394 82.1128 4.98511 84.0055 4.98511C85.0957 4.98511 86.19 5.25882 87.0529 5.70238L86.6205 7.28276C85.84 6.83921 84.7076 6.56549 83.9231 6.56549C82.9174 6.56549 82.2556 6.98906 82.2556 7.76826C82.2556 8.69532 83.2673 9.01296 84.436 9.33069C85.8178 9.71023 87.3003 10.3836 87.3003 12.2197C87.3003 14.0539 85.7978 15.2986 83.7381 15.2986Z" fill="white"/>
<path d="M41.687 28.7485C44.3541 28.7485 46.0417 26.8503 46.0417 24.0273C46.0417 21.378 44.4869 19.4819 41.3771 19.4819C38.7099 19.4819 36.9339 21.4239 36.9339 24.247C36.9339 26.9403 38.7542 28.7485 41.687 28.7485ZM35.2 41.6812C35.2 43.8431 37.7767 45.4335 41.6447 45.4335C45.4644 45.4335 48.4856 43.7991 48.4856 41.3276C48.4856 39.1219 46.4863 38.5924 42.399 38.5924C41.1096 38.5924 39.599 38.5024 38.7099 38.4145C36.6663 38.988 35.2 40.1788 35.2 41.6812ZM33.2891 34.3547C33.2891 32.6764 34.6227 31.134 36.6663 30.4247C34.5342 29.1899 33.2891 26.9843 33.2891 24.2031C33.2891 20.2311 36.2661 16.5669 41.5542 16.5669C43.7325 16.5669 45.5087 17.1403 46.796 17.7157L52.0419 17.2282L52.1747 20.8045L48.2644 20.0993C49.0629 20.8485 49.6422 22.7465 49.6422 24.247C49.6422 28.3069 46.263 31.6615 41.5099 31.6615C40.4881 31.6615 39.8646 31.5295 38.6658 31.176C37.823 31.4856 36.6663 32.2789 36.6663 33.2938C36.6663 34.4866 37.4669 35.1919 41.2866 35.1919C41.2866 35.1919 43.5978 35.1919 43.1533 35.1919C49.2419 35.1919 52.0419 37.046 52.0419 40.6223C52.0419 45.0778 47.1963 48.3904 41.0654 48.3904C35.6888 48.3904 31.6016 46.0948 31.6016 42.4724C31.6016 40.1788 33.1564 38.2807 35.9563 37.7513C34.2224 37.002 33.2891 35.7653 33.2891 34.3547Z" fill="white"/>
<path d="M67.0497 25.0425V24.7328C67.0497 21.7319 65.6296 19.7459 62.4274 19.7459C58.9616 19.7459 56.918 22.483 56.6083 25.1324L67.0497 25.0425ZM56.4312 27.9575C56.564 31.9274 59.2291 34.7525 63.1394 34.7525C65.2715 34.7525 67.5847 34.1791 69.2281 33.0763L69.8939 36.4288C68.0735 37.5317 65.6296 38.1071 63.0509 38.1071C56.918 38.1071 52.7422 33.7356 52.7422 27.5579C52.7422 21.0266 57.097 16.5691 62.7854 16.5691C67.7154 16.5691 70.5576 19.6579 70.5576 24.4691C70.5576 25.572 70.3826 26.8087 70.1172 27.6898C70.0729 27.6898 56.4312 27.7796 56.4312 27.7796V27.9575Z" fill="white"/>
<path d="M79.9796 38.1511C77.4895 38.1511 74.7337 37.3999 72.8672 36.253L73.8025 32.9424C75.49 34.0912 77.9782 34.8405 80.0662 34.8405C82.3773 34.8405 84.1091 33.7795 84.1091 31.9714C84.1091 29.9415 81.7094 29.2801 79.3119 28.6168C76.4233 27.8237 73.2694 26.4111 73.2694 22.7029C73.2694 18.9526 76.4676 16.5691 80.5569 16.5691C82.9103 16.5691 85.2637 17.1425 87.1343 18.0696L86.199 21.3802C84.5094 20.4532 82.0655 19.8778 80.3779 19.8778C78.2015 19.8778 76.7794 20.7628 76.7794 22.3951C76.7794 24.3372 78.9558 24.9965 81.4882 25.6618C84.4652 26.455 87.6654 27.8676 87.6654 31.7076C87.6654 35.5458 84.4209 38.1511 79.9796 38.1511Z" fill="white"/>
<path d="M97.8099 38.1072C93.8554 38.1072 91.7173 36.2091 91.7253 31.7956L91.7192 20.4972L88.334 20.2774L88.4043 17.9818L91.7514 16.9668L91.7192 12.5972H95.2272L95.2231 17.2305H101.577L101.535 20.4972H95.181L95.191 31.9295C95.2031 33.8276 96.1182 34.7966 97.9387 34.7966C99.1858 34.7966 100.419 34.4889 101.608 34.0473C101.652 34.0473 102.362 37.2241 102.362 37.2241C100.867 37.7975 99.3205 38.1072 97.8099 38.1072Z" fill="white"/>
<path d="M80.4609 5.45244V0H84.0896L80.4609 5.45244Z" fill="white"/>
<path d="M60.9286 12.7472C60.2909 13.3185 59.5286 13.6762 58.6436 13.6762C56.8936 13.6762 55.8436 12.2636 55.8436 10.1318C55.8436 8.14981 56.9158 6.54745 58.8306 6.54745C59.6533 6.54745 60.3715 6.77921 60.9286 7.24274C60.9286 7.24274 60.9286 12.853 60.9286 12.7472ZM60.9286 5.30272C60.3332 5.11292 59.5688 4.98505 58.891 4.98505C56.071 4.98505 54.0938 7.24274 54.0938 10.1738C54.0938 13.0868 55.6364 15.2786 58.2916 15.2786C59.4059 15.2786 60.2507 14.7311 60.9286 14.0778C60.9286 14.1837 60.9286 14.9629 60.9286 14.9629H62.6183V0.0380859H60.9286V5.30272Z" fill="white"/>
<path d="M26.3906 17.2305V37.4459H30.0342V17.2305H26.3906Z" fill="white"/>
<path d="M8.76566 33.9575H6.55508L4.19163 37.2061L4.18961 13.3464H8.58865C15.6087 13.3464 19.6958 16.9229 19.6958 23.7198C19.6958 30.471 15.3873 33.9575 8.76566 33.9575ZM8.76566 9.86206C6.54502 9.86206 0.412109 9.86206 0.412109 9.86206V37.4459C0.412109 37.4459 6.36801 37.4459 8.58865 37.4459C18.141 37.4459 23.4734 31.9714 23.4734 23.4542C23.4734 15.2446 17.9641 9.86206 8.76566 9.86206Z" fill="white"/>
</svg>
