<svg width="79" height="32" viewBox="0 0 79 32" fill="none" xmlns="http://www.w3.org/2000/svg">
    <g clip-path="url(#clip0_367_299)">
        <mask id="mask0_367_299" style="mask-type:luminance" maskUnits="userSpaceOnUse" x="-19" y="-42" width="117" height="116">
            <path d="M97.1126 -41.8551H-18.1133V73.8563H97.1126V-41.8551Z" fill="white"/>
        </mask>
        <g mask="url(#mask0_367_299)">
            <path d="M34.5516 0V29.5064H33.7174L4.34517 0H0V32H2.48312V2.49358H3.30583L32.6884 32H37.0336V0H34.5516Z" fill="#FFD140"/>
            <path d="M9.87109 32H12.3542V25.4924L19.1813 32H22.7868L9.87109 19.6895V32Z" fill="#FFD140"/>
            <path d="M4.93555 32H7.41751V13.6331L25.7073 32H29.2182L4.93555 7.61496V32Z" fill="#FFD140"/>
            <path d="M24.672 0V6.50761L17.8437 0H14.2383L27.1539 12.3105V0H24.672Z" fill="#FFD140"/>
            <path d="M29.6082 0V18.3669L11.3184 0H7.80859L32.0901 24.385V0H29.6082Z" fill="#FFD140"/>
            <path d="M41.9766 23.2939H44.2166L47.7805 27.8911V23.2939H50.1553V31.9919H48.0524L44.3525 27.22V31.9919H41.9766V23.2939Z" fill="#FFD140"/>
            <path d="M51.8105 23.2939H58.7771V25.3443H54.1865V26.6611H58.3439V28.5622H54.1865V29.9415H58.8382V31.9919H51.8105V23.2939Z" fill="#FFD140"/>
            <path d="M60.4922 23.2939H62.8923V26.8231L65.8744 23.2939H68.7205L65.4423 27.0337L68.8322 31.9919H65.9493L63.7715 28.7612L62.8923 29.7425V31.9919H60.4922V23.2939Z" fill="#FFD140"/>
            <path d="M72.9732 23.2939H75.34L79.0007 31.9919H76.4265L75.7963 30.4391H72.4547L71.8359 31.9919H69.3125L72.9732 23.2939ZM75.1026 28.5622L74.1382 26.0906L73.1599 28.5622H75.1026Z" fill="#FFD140"/>
        </g>
    </g>
    <defs>
        <clipPath id="clip0_367_299">
            <rect width="79" height="32" fill="white"/>
        </clipPath>
    </defs>
</svg>
