<svg width="1000" height="473" viewBox="0 0 1000 473" fill="none" xmlns="http://www.w3.org/2000/svg">
    <g clip-path="url(#clip0_209_1392)">
        <path d="M65.7703 0H0V471.631H65.7703V0Z" fill="white"/>
        <path d="M1000 0H934.23V471.631H1000V0Z" fill="white"/>
        <path d="M197.296 0H131.525V395.337H197.296V0Z" fill="white"/>
        <mask id="mask0_209_1392" style="mask-type:luminance" maskUnits="userSpaceOnUse" x="-230" y="-500" width="1460" height="1473">
            <path d="M1229.97 -499.511H-229.969V972.496H1229.97V-499.511Z" fill="white"/>
        </mask>
        <g mask="url(#mask0_209_1392)">
            <path d="M299.348 58.159H285.507V337.178H299.348C301.262 337.261 303.173 336.942 304.96 336.243C306.746 335.544 308.37 334.479 309.728 333.115C311.105 331.649 312.172 329.915 312.862 328.02C313.552 326.124 313.852 324.106 313.743 322.09V73.2324C313.851 71.216 313.551 69.1986 312.861 67.303C312.171 65.4074 311.105 63.6735 309.728 62.207C308.355 60.8653 306.729 59.8155 304.945 59.1201C303.162 58.4247 301.259 58.0979 299.348 58.159ZM219.693 395.337V0H301.027C325.242 0 344.362 6.78598 358.388 20.3579C372.413 33.9298 379.425 52.3397 379.425 75.5876V319.735C379.425 343.022 372.32 361.437 358.11 374.979C343.861 388.61 324.838 395.337 301.027 395.337H219.693Z" fill="white"/>
            <path d="M527.696 337.178V395.352H402.564V0H527.696V58.159H468.32V166.278H508.673V224.437H468.32V337.178H527.696Z" fill="white"/>
            <path d="M625.381 93.6049H624.214L607.483 278.46H638.696L625.381 93.6049ZM533.113 395.366L587.89 0H661.135L713.591 395.337H647.894L642.142 330.201H603.453L597.102 395.337L533.113 395.366Z" fill="white"/>
            <path d="M712.422 116.966V73.8506C712.422 51.7705 719.722 34.1064 734.321 20.4462C748.92 6.78597 767.564 0 790.076 0C812.978 0 831.762 6.89393 846.43 20.6817C861.029 34.548 868.329 52.2121 868.329 73.8506V121.558H804.091V72.6583C804.262 68.6331 802.963 64.6844 800.442 61.5593C799.204 60.1748 797.68 59.0813 795.977 58.3563C794.274 57.6314 792.434 57.2926 790.587 57.3641C788.698 57.2997 786.816 57.6403 785.067 58.3635C783.318 59.0867 781.741 60.176 780.44 61.5593C777.741 64.6005 776.317 68.5796 776.469 72.6583V118.143C776.393 123.878 777.409 129.575 779.462 134.924C781.534 139.959 784.598 144.516 788.47 148.319L833.538 194.835C847.797 209.261 857.189 221.861 861.715 232.636C866.226 243.411 868.475 259.265 868.475 280.02V321.545C868.475 343.095 861.044 360.848 846.225 374.641C831.407 388.433 812.515 395.396 789.594 395.396C767.082 395.396 748.589 388.58 734.117 374.95C719.644 361.319 712.412 343.498 712.422 321.486V272.586H776.659V322.635C776.497 326.632 777.795 330.55 780.309 333.645C781.522 335.057 783.036 336.175 784.737 336.914C786.438 337.653 788.284 337.995 790.134 337.914C792.042 337.987 793.944 337.644 795.707 336.907C797.471 336.17 799.057 335.057 800.354 333.645C803.051 330.603 804.47 326.623 804.31 322.546V274.338C804.465 268.426 803.509 262.537 801.493 256.983C799.609 252.228 795.872 247.076 790.207 241.365L742.351 191.92C730.282 179.438 722.286 168.187 718.364 158.167C714.393 148.099 712.422 134.394 712.422 116.951" fill="white"/>
            <path d="M144.754 454.821H170.157L157.646 425.484H157.412L144.754 454.821ZM159.938 418.271L183.443 472.352H177.705L172.128 459.34H142.783L137.192 472.352H131.527L155.456 418.271H159.938Z" fill="white"/>
            <path d="M200.115 423.114V472.352H194.932V423.114H175.982V418.418H219.08V423.114H200.115Z" fill="white"/>
            <path d="M257.696 423.114V472.352H252.513V423.114H233.549V418.418H276.661V423.114H257.696Z" fill="white"/>
            <path d="M323.539 418.418V472.352H318.342V447.063H288.063V472.352H282.865V418.418H288.063V442.382H318.342V418.418H323.539Z" fill="white"/>
            <path d="M372.154 467.671V472.352H334.867V418.418H372.154V423.114H340.123V442.529H364.358V447.21H340.123V467.671H372.154Z" fill="white"/>
            <path d="M425.471 442.529V447.21H397.703V472.352H392.447V418.418H429.953V423.114H397.703V442.529H425.471Z" fill="white"/>
            <path d="M436.874 445.385C436.802 448.404 437.336 451.407 438.445 454.213C439.554 457.018 441.214 459.568 443.326 461.71C445.416 463.822 447.899 465.498 450.632 466.642C453.365 467.785 456.295 468.374 459.254 468.374C462.213 468.374 465.144 467.785 467.877 466.642C470.61 465.498 473.092 463.822 475.182 461.71C479.317 457.317 481.621 451.492 481.621 445.437C481.621 439.381 479.317 433.556 475.182 429.164C470.95 424.949 465.24 422.585 459.291 422.585C453.342 422.585 447.632 424.949 443.399 429.164C441.296 431.284 439.64 433.812 438.531 436.595C437.422 439.377 436.883 442.358 436.946 445.356M459.284 417.756C462.918 417.683 466.529 418.357 469.898 419.737C473.266 421.116 476.32 423.171 478.876 425.778C483.993 431.008 486.871 438.052 486.893 445.398C486.915 452.744 484.078 459.806 478.993 465.066C473.663 470.137 466.612 472.962 459.284 472.962C451.955 472.962 444.904 470.137 439.574 465.066C434.468 459.817 431.617 452.751 431.639 445.398C431.661 438.045 434.553 430.997 439.691 425.778C442.244 423.172 445.296 421.116 448.662 419.737C452.028 418.358 455.637 417.684 459.269 417.756" fill="white"/>
            <path d="M516.163 468.319C518.224 468.394 520.276 468.008 522.172 467.188C524.067 466.369 525.76 465.136 527.127 463.579C530.04 460.165 531.549 455.757 531.346 451.258V418.418H536.5V451.494C536.5 458 534.626 463.206 530.879 467.112C526.872 470.885 521.594 472.983 516.112 472.983C510.629 472.983 505.351 470.885 501.344 467.112C497.578 463.187 495.689 457.981 495.68 451.494V418.418H500.877V451.258C500.682 455.761 502.202 460.169 505.125 463.579C506.505 465.133 508.205 466.363 510.107 467.182C512.009 468.001 514.066 468.389 516.133 468.319" fill="white"/>
            <path d="M591.993 418.418V472.352H586.883L552.823 426.117H552.662V472.352H547.713V418.418H553.056L586.883 463.712H587.044V418.418H591.993Z" fill="white"/>
            <path d="M608.593 423.025V467.76H623.615C626.581 467.837 629.531 467.312 632.29 466.214C635.049 465.116 637.561 463.469 639.675 461.371C643.812 457.098 646.127 451.364 646.127 445.393C646.127 439.421 643.812 433.687 639.675 429.414C637.561 427.316 635.049 425.669 632.29 424.571C629.531 423.473 626.581 422.948 623.615 423.025H608.593ZM651.456 445.518C651.547 449.092 650.886 452.645 649.517 455.943C648.148 459.241 646.102 462.21 643.514 464.654C640.858 467.181 637.732 469.154 634.318 470.46C630.903 471.766 627.266 472.379 623.615 472.264H603.322V418.418H623.615C627.262 418.32 630.891 418.953 634.293 420.283C637.694 421.612 640.799 423.61 643.427 426.161C646.046 428.638 648.116 431.646 649.5 434.987C650.884 438.329 651.551 441.928 651.456 445.547" fill="white"/>
            <path d="M664.742 454.821H690.159L677.648 425.484H677.414L664.742 454.821ZM679.925 418.271L703.445 472.352H697.707L692.116 459.34H662.771L657.194 472.352H651.529L675.443 418.271H679.925Z" fill="white"/>
            <path d="M720.132 423.114V472.352H714.934V423.114H695.984V418.418H739.082V423.114H720.132Z" fill="white"/>
            <path d="M750.658 418.418H745.461V472.352H750.658V418.418Z" fill="white"/>
            <path d="M765.112 445.385C765.038 448.403 765.57 451.405 766.676 454.211C767.783 457.016 769.441 459.567 771.55 461.71C775.768 465.953 781.483 468.336 787.441 468.336C793.4 468.336 799.115 465.953 803.333 461.71C807.487 457.327 809.805 451.499 809.805 445.437C809.805 439.374 807.487 433.546 803.333 429.164C799.1 424.948 793.391 422.585 787.441 422.585C781.492 422.585 775.783 424.948 771.55 429.164C769.447 431.284 767.79 433.812 766.681 436.594C765.573 439.377 765.034 442.357 765.097 445.356M787.434 417.755C791.069 417.682 794.68 418.356 798.049 419.735C801.417 421.114 804.471 423.17 807.026 425.778C812.164 430.996 815.057 438.045 815.079 445.398C815.101 452.751 812.25 459.816 807.143 465.066C801.813 470.137 794.762 472.962 787.434 472.962C780.106 472.962 773.055 470.137 767.725 465.066C762.618 459.816 759.767 452.751 759.789 445.398C759.811 438.045 762.704 430.996 767.842 425.778C770.393 423.17 773.445 421.114 776.811 419.734C780.177 418.355 783.787 417.682 787.419 417.755" fill="white"/>
        </g>
    </g>
    <defs>
        <clipPath id="clip0_209_1392">
            <rect width="1000" height="473" fill="white"/>
        </clipPath>
    </defs>
</svg>
