<svg width="360" height="170" viewBox="0 0 360 170" fill="none" xmlns="http://www.w3.org/2000/svg">
    <g clip-path="url(#clip0_209_1338)">
        <path d="M23.6773 0H0V169.508H23.6773V0Z" fill="white"/>
        <path d="M360 0H336.322V169.508H360V0Z" fill="white"/>
        <path d="M71.0269 0H47.3496V142.087H71.0269V0Z" fill="white"/>
        <mask id="mask0_209_1338" style="mask-type:luminance" maskUnits="userSpaceOnUse" x="-83" y="-180" width="526" height="530">
            <path d="M442.789 -179.528H-82.7891V349.523H442.789V-179.528Z" fill="white"/>
        </mask>
        <g mask="url(#mask0_209_1338)">
            <path d="M107.765 20.9028H102.783V121.184H107.765C108.455 121.214 109.143 121.1 109.786 120.848C110.429 120.597 111.013 120.214 111.502 119.724C111.998 119.197 112.382 118.574 112.631 117.893C112.879 117.212 112.987 116.486 112.948 115.762V26.3203C112.987 25.5956 112.879 24.8705 112.63 24.1892C112.382 23.508 111.998 22.8848 111.502 22.3577C111.008 21.8755 110.423 21.4982 109.781 21.2482C109.139 20.9983 108.453 20.8808 107.765 20.9028ZM79.0898 142.087V0H108.37C117.087 0 123.971 2.43893 129.02 7.31679C134.069 12.1946 136.593 18.8113 136.593 27.1668V114.915C136.593 123.285 134.036 129.903 128.92 134.77C123.79 139.67 116.942 142.087 108.37 142.087H79.0898Z" fill="white"/>
            <path d="M189.971 121.184V142.093H144.924V0H189.971V20.9028H168.596V59.7616H183.123V80.6644H168.596V121.184H189.971Z" fill="white"/>
            <path d="M225.136 33.6424H224.716L218.693 100.081H229.93L225.136 33.6424ZM191.92 142.098L211.64 0H238.008L256.892 142.087H233.241L231.17 118.677H217.242L214.956 142.087L191.92 142.098Z" fill="white"/>
            <path d="M256.473 42.0384V26.5425C256.473 18.6067 259.101 12.2581 264.356 7.34853C269.612 2.43893 276.324 0 284.428 0C292.673 0 299.435 2.47773 304.715 7.43318C309.971 12.4168 312.599 18.7655 312.599 26.5425V43.6891H289.474V26.114C289.535 24.6673 289.068 23.2481 288.16 22.1249C287.714 21.6273 287.166 21.2343 286.553 20.9737C285.94 20.7132 285.277 20.5914 284.612 20.6171C283.932 20.594 283.255 20.7164 282.625 20.9763C281.995 21.2362 281.428 21.6277 280.959 22.1249C279.987 23.2179 279.475 24.6481 279.53 26.114V42.4617C279.502 44.5229 279.868 46.5703 280.607 48.4928C281.353 50.3022 282.456 51.9402 283.85 53.3072L300.075 70.0252C305.208 75.2099 308.589 79.7386 310.218 83.6113C311.842 87.4839 312.652 93.1818 312.652 100.641V115.566C312.652 123.311 309.977 129.692 304.642 134.649C299.307 139.606 292.506 142.108 284.255 142.108C276.15 142.108 269.493 139.659 264.283 134.76C259.073 129.861 256.469 123.456 256.473 115.545V97.9697H279.598V115.957C279.54 117.394 280.007 118.802 280.912 119.915C281.349 120.422 281.894 120.824 282.506 121.09C283.119 121.355 283.783 121.478 284.449 121.449C285.136 121.475 285.82 121.352 286.455 121.087C287.091 120.822 287.661 120.422 288.128 119.915C289.099 118.822 289.61 117.391 289.553 115.926V98.5993C289.608 96.4743 289.264 94.3579 288.538 92.3617C287.86 90.6529 286.515 88.8012 284.475 86.7485L267.247 68.9777C262.902 64.4913 260.024 60.4476 258.612 56.8466C257.182 53.2278 256.473 48.3024 256.473 42.0331" fill="white"/>
            <path d="M52.1114 163.466H61.2564L56.7522 152.922H56.6681L52.1114 163.466ZM57.5774 150.33L66.0392 169.767H63.9736L61.9659 165.09H51.4018L49.3889 169.767H47.3496L55.9638 150.33H57.5774Z" fill="white"/>
            <path d="M72.0413 152.07V169.767H70.1755V152.07H63.3535V150.383H78.8686V152.07H72.0413Z" fill="white"/>
            <path d="M92.7692 152.07V169.767H90.9034V152.07H84.0762V150.383H99.5965V152.07H92.7692Z" fill="white"/>
            <path d="M116.473 150.383V169.767H114.602V160.678H103.701V169.767H101.83V150.383H103.701V158.996H114.602V150.383H116.473Z" fill="white"/>
            <path d="M133.976 168.085V169.767H120.553V150.383H133.976V152.07H122.445V159.049H131.169V160.731H122.445V168.085H133.976Z" fill="white"/>
            <path d="M153.17 159.049V160.731H143.173V169.767H141.281V150.383H154.783V152.07H143.173V159.049H153.17Z" fill="white"/>
            <path d="M157.275 160.075C157.249 161.16 157.442 162.239 157.841 163.248C158.24 164.256 158.838 165.172 159.598 165.942C160.351 166.701 161.244 167.304 162.228 167.715C163.212 168.126 164.267 168.337 165.332 168.337C166.398 168.337 167.452 168.126 168.436 167.715C169.42 167.304 170.314 166.701 171.066 165.942C172.555 164.363 173.384 162.27 173.384 160.094C173.384 157.917 172.555 155.824 171.066 154.245C169.543 152.73 167.487 151.88 165.345 151.88C163.204 151.88 161.148 152.73 159.625 154.245C158.867 155.007 158.271 155.915 157.872 156.916C157.473 157.916 157.279 158.987 157.301 160.064M165.343 150.145C166.651 150.119 167.951 150.361 169.164 150.857C170.376 151.352 171.476 152.091 172.396 153.028C174.238 154.908 175.274 157.439 175.282 160.08C175.29 162.72 174.269 165.258 172.438 167.148C170.519 168.971 167.981 169.986 165.343 169.986C162.705 169.986 160.166 168.971 158.247 167.148C156.409 165.262 155.383 162.722 155.391 160.08C155.399 157.437 156.44 154.904 158.29 153.028C159.209 152.091 160.307 151.353 161.519 150.857C162.731 150.361 164.03 150.119 165.338 150.145" fill="white"/>
            <path d="M185.819 168.318C186.561 168.345 187.3 168.206 187.982 167.911C188.665 167.617 189.274 167.174 189.766 166.614C190.815 165.387 191.358 163.803 191.285 162.186V150.383H193.14V162.271C193.14 164.609 192.466 166.48 191.117 167.884C189.675 169.24 187.774 169.994 185.801 169.994C183.827 169.994 181.927 169.24 180.485 167.884C179.129 166.473 178.449 164.602 178.445 162.271V150.383H180.316V162.186C180.246 163.804 180.793 165.389 181.846 166.614C182.342 167.173 182.954 167.615 183.639 167.909C184.324 168.203 185.065 168.343 185.809 168.318" fill="white"/>
            <path d="M213.117 150.383V169.767H211.277L199.015 153.15H198.957V169.767H197.176V150.383H199.099L211.277 166.662H211.335V150.383H213.117Z" fill="white"/>
            <path d="M219.093 152.039V168.116H224.501C225.568 168.144 226.63 167.955 227.624 167.561C228.617 167.166 229.521 166.575 230.282 165.82C231.771 164.285 232.605 162.224 232.605 160.078C232.605 157.931 231.771 155.87 230.282 154.335C229.521 153.581 228.617 152.989 227.624 152.594C226.63 152.2 225.568 152.011 224.501 152.039H219.093ZM234.524 160.123C234.556 161.407 234.318 162.684 233.825 163.869C233.333 165.055 232.596 166.122 231.664 167C230.708 167.908 229.583 168.617 228.354 169.087C227.124 169.556 225.815 169.777 224.501 169.735H217.195V150.383H224.501C225.814 150.347 227.12 150.575 228.345 151.053C229.569 151.531 230.687 152.249 231.633 153.166C232.576 154.056 233.321 155.137 233.819 156.338C234.317 157.539 234.557 158.832 234.524 160.133" fill="white"/>
            <path d="M239.307 163.466H248.458L243.953 152.922H243.869L239.307 163.466ZM244.773 150.33L253.24 169.767H251.175L249.162 165.09H238.598L236.59 169.767H234.551L243.16 150.33H244.773Z" fill="white"/>
            <path d="M259.248 152.07V169.767H257.377V152.07H250.555V150.383H266.07V152.07H259.248Z" fill="white"/>
            <path d="M270.236 150.383H268.365V169.767H270.236V150.383Z" fill="white"/>
            <path d="M275.44 160.075C275.413 161.16 275.605 162.239 276.003 163.247C276.401 164.255 276.998 165.172 277.757 165.942C279.276 167.467 281.333 168.324 283.478 168.324C285.623 168.324 287.681 167.467 289.199 165.942C290.695 164.367 291.529 162.272 291.529 160.094C291.529 157.915 290.695 155.82 289.199 154.245C287.675 152.73 285.62 151.88 283.478 151.88C281.337 151.88 279.281 152.73 277.757 154.245C277 155.007 276.404 155.915 276.005 156.916C275.605 157.916 275.411 158.987 275.434 160.064M283.476 150.145C284.784 150.119 286.084 150.361 287.297 150.856C288.509 151.352 289.609 152.091 290.529 153.028C292.378 154.904 293.42 157.437 293.428 160.08C293.436 162.722 292.409 165.262 290.571 167.148C288.652 168.971 286.114 169.986 283.476 169.986C280.837 169.986 278.299 168.971 276.38 167.148C274.542 165.262 273.516 162.722 273.523 160.08C273.531 157.437 274.573 154.904 276.422 153.028C277.341 152.091 278.44 151.352 279.651 150.856C280.863 150.36 282.163 150.118 283.47 150.145" fill="white"/>
            <path d="M312.651 150.383V169.767H310.806L298.55 153.15H298.492V169.767H296.705V150.383H298.634L310.806 166.662H310.869V150.383H312.651Z" fill="white"/>
        </g>
    </g>
    <defs>
        <clipPath id="clip0_209_1338">
            <rect width="360" height="170" fill="white"/>
        </clipPath>
    </defs>
</svg>
